<svg width="413" height="413" viewBox="0 0 413 413" fill="none" xmlns="http://www.w3.org/2000/svg">
<g clip-path="url(#clip0_237_19)">
<path d="M135.831 87.579C127.583 87.579 109.503 113.311 94.9098 99.384C89.8621 94.5771 115.766 84.7225 114.722 76.2445C113.862 69.2809 82.1183 58.8067 93.212 52.1643C104.306 45.5334 120.952 61.8124 133.514 62.0992C160.841 62.7302 181.835 52.3134 182.133 52.1643C183.606 51.4147 185.213 50.9673 186.861 50.8482C188.509 50.7292 190.165 50.941 191.73 51.4712C193.295 52.0015 194.738 52.8393 195.974 53.9356C197.21 55.0318 198.215 56.3643 198.928 57.8545C202.026 64.1298 199.514 71.7703 193.33 74.9022C191.827 75.6594 167.804 87.579 135.831 87.579Z" fill="#DD2E44"/>
<path d="M319.134 413C273.624 413 225.269 379.593 225.269 317.689C225.269 301.926 215.058 298.633 206.489 298.633C197.93 298.633 187.72 301.926 187.72 317.689C187.72 379.593 139.353 413 93.8542 413C48.3554 413 0 381.222 0 317.689C0 165.2 162.699 144.148 162.699 165.2C162.699 186.252 75.0972 152.5 75.0972 304.989C75.0972 330.4 85.3074 336.756 93.8657 336.756C102.435 336.756 112.646 333.463 112.646 317.7C112.646 255.808 161.001 222.389 206.511 222.389C252.01 222.389 300.377 255.796 300.377 317.7C300.377 333.463 310.587 336.756 319.157 336.756C327.727 336.756 337.926 333.463 337.926 317.7V127.078C337.926 82.8524 298.725 76.2444 275.356 76.2444C275.356 76.2444 237.819 88.9556 200.271 88.9556C162.722 88.9556 150.206 59.1737 150.206 38.1222C150.183 17.0707 200.248 0 275.333 0C350.431 0 413 51.0629 413 127.078V317.689C413 379.593 364.633 413 319.134 413Z" fill="#77B255"/>
<path d="M217.972 45.8888C224.308 45.8888 229.444 40.7525 229.444 34.4166C229.444 28.0806 224.308 22.9443 217.972 22.9443C211.636 22.9443 206.5 28.0806 206.5 34.4166C206.5 40.7525 211.636 45.8888 217.972 45.8888Z" fill="#292F33"/>
</g>
<defs>
<clipPath id="clip0_237_19">
<rect width="413" height="413" fill="white"/>
</clipPath>
</defs>
</svg>
